<?xml version="1.0" standalone="no"?>
<!DOCTYPE svg PUBLIC "-//W3C//DTD SVG 20010904//EN"
 "http://www.w3.org/TR/2001/REC-SVG-20010904/DTD/svg10.dtd">
<svg version="1.0" xmlns="http://www.w3.org/2000/svg"
 width="225.000000pt" height="225.000000pt" viewBox="0 0 225.000000 225.000000"
 preserveAspectRatio="xMidYMid meet">

<g transform="translate(0.000000,225.000000) scale(0.100000,-0.100000)"
fill="#000000" stroke="none">
<path d="M0 1125 l0 -1125 208 1 c114 0 196 4 182 8 -74 23 -136 78 -169 151
-20 44 -21 61 -21 965 0 904 1 921 21 965 23 52 59 92 109 123 32 20 53 23
215 28 143 4 106 5 -182 7 l-363 2 0 -1125z"/>
<path d="M1415 2240 c296 -4 344 -7 371 -22 44 -24 91 -73 117 -122 21 -39 22
-55 25 -293 2 -145 0 -253 -5 -253 -5 0 -44 30 -86 66 l-77 67 -1 106 c0 58
-3 137 -8 175 -13 116 50 106 -688 106 l-635 0 -29 -29 -29 -29 0 -882 c0
-964 -2 -931 58 -947 15 -5 307 -8 649 -8 l623 0 25 26 c25 25 26 30 32 196
l6 171 78 66 c43 36 81 66 84 66 4 0 5 -114 3 -252 -3 -247 -4 -254 -28 -302
-30 -58 -87 -110 -144 -130 -38 -13 -21 -14 227 -15 l267 -1 0 1125 0 1125
-587 -2 c-525 -2 -551 -3 -248 -8z m163 -702 c370 -318 472 -410 467 -419 -7
-10 -252 -227 -479 -422 -100 -87 -167 -137 -181 -137 -12 0 -30 9 -41 21 -16
18 -20 40 -23 150 l-3 129 -270 0 -270 0 -29 29 -29 29 0 207 c0 205 0 206 25
230 l24 25 275 0 274 0 4 134 c3 115 6 137 22 155 11 12 28 21 39 21 10 0 98
-68 195 -152z"/>
</g>
</svg>
